<svg width="14" height="14" viewBox="0 0 14 14" fill="none" xmlns="http://www.w3.org/2000/svg">
<path d="M7.00016 0.333313C10.6822 0.333313 13.6668 3.31798 13.6668 6.99998C13.6668 10.682 10.6822 13.6666 7.00016 13.6666C3.31816 13.6666 0.333496 10.682 0.333496 6.99998C0.333496 3.31798 3.31816 0.333313 7.00016 0.333313ZM7.00016 8.99998C6.82335 8.99998 6.65378 9.07022 6.52876 9.19524C6.40373 9.32027 6.3335 9.48984 6.3335 9.66665C6.3335 9.84346 6.40373 10.013 6.52876 10.1381C6.65378 10.2631 6.82335 10.3333 7.00016 10.3333C7.17697 10.3333 7.34654 10.2631 7.47157 10.1381C7.59659 10.013 7.66683 9.84346 7.66683 9.66665C7.66683 9.48984 7.59659 9.32027 7.47157 9.19524C7.34654 9.07022 7.17697 8.99998 7.00016 8.99998ZM7.00016 2.99998C6.83687 3 6.67927 3.05995 6.55725 3.16846C6.43523 3.27696 6.35727 3.42648 6.33816 3.58865L6.3335 3.66665V7.66665C6.33368 7.83657 6.39875 8 6.5154 8.12356C6.63204 8.24712 6.79147 8.32147 6.96109 8.33143C7.13072 8.34139 7.29775 8.2862 7.42805 8.17714C7.55835 8.06808 7.64209 7.91338 7.66216 7.74465L7.66683 7.66665V3.66665C7.66683 3.48984 7.59659 3.32027 7.47157 3.19524C7.34654 3.07022 7.17697 2.99998 7.00016 2.99998Z" fill="#262626"/>
</svg>
