<svg width="24" height="20" viewBox="0 0 24 20" fill="none" xmlns="http://www.w3.org/2000/svg">
<g filter="url(#filter0_d_31_1338)">
<path d="M6 16C5.45 16 4.97917 15.8042 4.5875 15.4125C4.19583 15.0208 4 14.55 4 14C4 13.45 4.19583 12.9792 4.5875 12.5875C4.97917 12.1958 5.45 12 6 12C6.55 12 7.02083 12.1958 7.4125 12.5875C7.80417 12.9792 8 13.45 8 14C8 14.55 7.80417 15.0208 7.4125 15.4125C7.02083 15.8042 6.55 16 6 16ZM6 10C5.45 10 4.97917 9.80417 4.5875 9.4125C4.19583 9.02083 4 8.55 4 8C4 7.45 4.19583 6.97917 4.5875 6.5875C4.97917 6.19583 5.45 6 6 6C6.55 6 7.02083 6.19583 7.4125 6.5875C7.80417 6.97917 8 7.45 8 8C8 8.55 7.80417 9.02083 7.4125 9.4125C7.02083 9.80417 6.55 10 6 10ZM6 4C5.45 4 4.97917 3.80417 4.5875 3.4125C4.19583 3.02083 4 2.55 4 2C4 1.45 4.19583 0.979167 4.5875 0.5875C4.97917 0.195833 5.45 0 6 0C6.55 0 7.02083 0.195833 7.4125 0.5875C7.80417 0.979167 8 1.45 8 2C8 2.55 7.80417 3.02083 7.4125 3.4125C7.02083 3.80417 6.55 4 6 4ZM12 4C11.45 4 10.9792 3.80417 10.5875 3.4125C10.1958 3.02083 10 2.55 10 2C10 1.45 10.1958 0.979167 10.5875 0.5875C10.9792 0.195833 11.45 0 12 0C12.55 0 13.0208 0.195833 13.4125 0.5875C13.8042 0.979167 14 1.45 14 2C14 2.55 13.8042 3.02083 13.4125 3.4125C13.0208 3.80417 12.55 4 12 4ZM18 4C17.45 4 16.9792 3.80417 16.5875 3.4125C16.1958 3.02083 16 2.55 16 2C16 1.45 16.1958 0.979167 16.5875 0.5875C16.9792 0.195833 17.45 0 18 0C18.55 0 19.0208 0.195833 19.4125 0.5875C19.8042 0.979167 20 1.45 20 2C20 2.55 19.8042 3.02083 19.4125 3.4125C19.0208 3.80417 18.55 4 18 4ZM12 10C11.45 10 10.9792 9.80417 10.5875 9.4125C10.1958 9.02083 10 8.55 10 8C10 7.45 10.1958 6.97917 10.5875 6.5875C10.9792 6.19583 11.45 6 12 6C12.55 6 13.0208 6.19583 13.4125 6.5875C13.8042 6.97917 14 7.45 14 8C14 8.55 13.8042 9.02083 13.4125 9.4125C13.0208 9.80417 12.55 10 12 10ZM13 16V12.925L18.525 7.425C18.675 7.275 18.8417 7.16667 19.025 7.1C19.2083 7.03333 19.3917 7 19.575 7C19.775 7 19.9667 7.0375 20.15 7.1125C20.3333 7.1875 20.5 7.3 20.65 7.45L21.575 8.375C21.7083 8.525 21.8125 8.69167 21.8875 8.875C21.9625 9.05833 22 9.24167 22 9.425C22 9.60833 21.9667 9.79583 21.9 9.9875C21.8333 10.1792 21.725 10.35 21.575 10.5L16.075 16H13ZM14.5 14.5H15.45L18.475 11.45L18.025 10.975L17.55 10.525L14.5 13.55V14.5ZM18.025 10.975L17.55 10.525L18.475 11.45L18.025 10.975Z" fill="#7F7F7F"/>
<path d="M18.8778 7.77936L18.8786 7.77855C18.9815 7.67564 19.087 7.60947 19.1959 7.5699C19.328 7.52186 19.4536 7.5 19.575 7.5C19.7107 7.5 19.838 7.5251 19.9607 7.57527L20.15 7.1125L19.9607 7.57527C20.0783 7.62339 20.19 7.69713 20.2964 7.80355L21.2102 8.71735C21.3022 8.82291 21.3731 8.93806 21.4247 9.06432C21.4771 9.19243 21.5 9.31166 21.5 9.425C21.5 9.54677 21.478 9.67878 21.4278 9.82324L21.9 9.9875L21.4277 9.82324C21.387 9.94042 21.3206 10.0473 21.2214 10.1464L15.8679 15.5H13.5V13.1328L18.8778 7.77936ZM14 14.5V15H14.5H15.45H15.6583L15.805 14.8521L18.83 11.8021L19.1713 11.458L18.838 11.1061L18.388 10.6311L18.3787 10.6213L18.3689 10.612L17.8939 10.162L17.542 9.8287L17.1979 10.17L14.1479 13.195L14 13.3417V13.55V14.5ZM4.94105 12.9411L4.5875 12.5875L4.94105 12.9411C5.2397 12.6424 5.58366 12.5 6 12.5C6.41634 12.5 6.7603 12.6424 7.05895 12.9411C7.35759 13.2397 7.5 13.5837 7.5 14C7.5 14.4163 7.35759 14.7603 7.05895 15.0589C6.7603 15.3576 6.41634 15.5 6 15.5C5.58366 15.5 5.2397 15.3576 4.94105 15.0589C4.64241 14.7603 4.5 14.4163 4.5 14C4.5 13.5837 4.64241 13.2397 4.94105 12.9411ZM6 9.5C5.58366 9.5 5.2397 9.35759 4.94105 9.05895C4.64241 8.7603 4.5 8.41634 4.5 8C4.5 7.58366 4.64241 7.2397 4.94105 6.94105C5.2397 6.64241 5.58366 6.5 6 6.5C6.41634 6.5 6.7603 6.64241 7.05895 6.94105C7.35759 7.2397 7.5 7.58366 7.5 8C7.5 8.41634 7.35759 8.7603 7.05895 9.05895C6.7603 9.35759 6.41634 9.5 6 9.5ZM6 3.5C5.58366 3.5 5.2397 3.35759 4.94105 3.05895C4.64241 2.7603 4.5 2.41634 4.5 2C4.5 1.58366 4.64241 1.2397 4.94105 0.941053C5.2397 0.642407 5.58366 0.5 6 0.5C6.41634 0.5 6.7603 0.642407 7.05895 0.941054C7.35759 1.2397 7.5 1.58366 7.5 2C7.5 2.41634 7.35759 2.7603 7.05895 3.05895C6.7603 3.35759 6.41634 3.5 6 3.5ZM12 3.5C11.5837 3.5 11.2397 3.35759 10.9411 3.05895C10.6424 2.7603 10.5 2.41634 10.5 2C10.5 1.58366 10.6424 1.2397 10.9411 0.941054C11.2397 0.642407 11.5837 0.5 12 0.5C12.4163 0.5 12.7603 0.642407 13.0589 0.941054C13.3576 1.2397 13.5 1.58366 13.5 2C13.5 2.41634 13.3576 2.7603 13.0589 3.05895C12.7603 3.35759 12.4163 3.5 12 3.5ZM18 3.5C17.5837 3.5 17.2397 3.35759 16.9411 3.05895C16.6424 2.7603 16.5 2.41634 16.5 2C16.5 1.58366 16.6424 1.2397 16.9411 0.941054L16.5875 0.5875L16.9411 0.941053C17.2397 0.642407 17.5837 0.5 18 0.5C18.4163 0.5 18.7603 0.642407 19.0589 0.941053C19.3576 1.2397 19.5 1.58366 19.5 2C19.5 2.41634 19.3576 2.7603 19.0589 3.05895C18.7603 3.35759 18.4163 3.5 18 3.5ZM12 9.5C11.5837 9.5 11.2397 9.35759 10.9411 9.05895C10.6424 8.7603 10.5 8.41634 10.5 8C10.5 7.58366 10.6424 7.2397 10.9411 6.94105C11.2397 6.64241 11.5837 6.5 12 6.5C12.4163 6.5 12.7603 6.64241 13.0589 6.94105C13.3576 7.2397 13.5 7.58366 13.5 8C13.5 8.41634 13.3576 8.7603 13.0589 9.05895C12.7603 9.35759 12.4163 9.5 12 9.5Z" stroke="black"/>
</g>
<defs>
<filter id="filter0_d_31_1338" x="0" y="0" width="26" height="24" filterUnits="userSpaceOnUse" color-interpolation-filters="sRGB">
<feFlood flood-opacity="0" result="BackgroundImageFix"/>
<feColorMatrix in="SourceAlpha" type="matrix" values="0 0 0 0 0 0 0 0 0 0 0 0 0 0 0 0 0 0 127 0" result="hardAlpha"/>
<feOffset dy="4"/>
<feGaussianBlur stdDeviation="2"/>
<feComposite in2="hardAlpha" operator="out"/>
<feColorMatrix type="matrix" values="0 0 0 0 0 0 0 0 0 0 0 0 0 0 0 0 0 0 0.25 0"/>
<feBlend mode="normal" in2="BackgroundImageFix" result="effect1_dropShadow_31_1338"/>
<feBlend mode="normal" in="SourceGraphic" in2="effect1_dropShadow_31_1338" result="shape"/>
</filter>
</defs>
</svg>
