<svg xmlns="http://www.w3.org/2000/svg" xmlns:xlink="http://www.w3.org/1999/xlink" width="1920" zoomAndPan="magnify" viewBox="0 0 1440 809.999993" height="1080" preserveAspectRatio="xMidYMid meet" version="1.0"><defs><g/><clipPath id="bda5f9556c"><path d="M 593 227.679688 L 847 227.679688 L 847 481.929688 L 593 481.929688 Z M 593 227.679688 " clip-rule="nonzero"/></clipPath><clipPath id="3a5ade5e7d"><path d="M 652 302 L 790 302 L 790 436.082031 L 652 436.082031 Z M 652 302 " clip-rule="nonzero"/></clipPath></defs><path fill="#88e4db" d="M 678.667969 480.105469 L 762.824219 480.105469 L 762.824219 408.339844 L 845.425781 408.339844 L 845.425781 301.964844 L 762.824219 301.964844 L 762.824219 229.25 L 678.667969 229.25 L 678.667969 301.964844 L 594.566406 301.964844 L 594.566406 408.339844 L 678.667969 408.339844 Z M 678.667969 480.105469 " fill-opacity="1" fill-rule="nonzero"/><g clip-path="url(#bda5f9556c)"><path fill="#88e4db" d="M 762.824219 481.671875 L 678.667969 481.671875 C 678.460938 481.671875 678.257812 481.632812 678.066406 481.554688 C 677.875 481.472656 677.707031 481.359375 677.558594 481.214844 C 677.410156 481.066406 677.296875 480.898438 677.21875 480.703125 C 677.140625 480.511719 677.101562 480.3125 677.101562 480.105469 L 677.101562 409.90625 L 594.566406 409.90625 C 594.359375 409.90625 594.160156 409.867188 593.96875 409.789062 C 593.777344 409.707031 593.605469 409.59375 593.460938 409.449219 C 593.3125 409.300781 593.199219 409.132812 593.121094 408.9375 C 593.039062 408.746094 593 408.546875 593 408.339844 L 593 301.964844 C 593 301.757812 593.039062 301.558594 593.121094 301.363281 C 593.199219 301.171875 593.3125 301.003906 593.460938 300.855469 C 593.605469 300.710938 593.777344 300.597656 593.96875 300.515625 C 594.160156 300.4375 594.359375 300.398438 594.566406 300.398438 L 677.101562 300.398438 L 677.101562 229.25 C 677.101562 229.039062 677.140625 228.839844 677.21875 228.648438 C 677.296875 228.457031 677.410156 228.285156 677.558594 228.140625 C 677.707031 227.992188 677.875 227.878906 678.066406 227.800781 C 678.257812 227.71875 678.460938 227.679688 678.667969 227.679688 L 762.824219 227.679688 C 763.035156 227.679688 763.234375 227.71875 763.425781 227.800781 C 763.617188 227.878906 763.789062 227.992188 763.933594 228.140625 C 764.082031 228.285156 764.195312 228.457031 764.273438 228.648438 C 764.355469 228.839844 764.394531 229.039062 764.394531 229.25 L 764.394531 300.398438 L 845.425781 300.398438 C 845.632812 300.398438 845.832031 300.4375 846.023438 300.515625 C 846.214844 300.597656 846.386719 300.710938 846.53125 300.855469 C 846.679688 301.003906 846.792969 301.171875 846.871094 301.363281 C 846.953125 301.558594 846.992188 301.757812 846.992188 301.964844 L 846.992188 408.339844 C 846.992188 408.546875 846.953125 408.746094 846.871094 408.9375 C 846.792969 409.132812 846.679688 409.300781 846.53125 409.449219 C 846.386719 409.59375 846.214844 409.707031 846.023438 409.789062 C 845.832031 409.867188 845.632812 409.90625 845.425781 409.90625 L 764.394531 409.90625 L 764.394531 480.105469 C 764.394531 480.3125 764.355469 480.511719 764.273438 480.703125 C 764.195312 480.898438 764.082031 481.066406 763.933594 481.214844 C 763.789062 481.359375 763.617188 481.472656 763.425781 481.554688 C 763.234375 481.632812 763.035156 481.671875 762.824219 481.671875 Z M 680.234375 478.539062 L 761.257812 478.539062 L 761.257812 408.339844 C 761.257812 408.132812 761.296875 407.929688 761.378906 407.738281 C 761.457031 407.546875 761.570312 407.378906 761.71875 407.230469 C 761.863281 407.082031 762.035156 406.96875 762.226562 406.890625 C 762.417969 406.8125 762.617188 406.769531 762.824219 406.769531 L 843.855469 406.769531 L 843.855469 303.53125 L 762.824219 303.53125 C 762.617188 303.53125 762.417969 303.492188 762.226562 303.414062 C 762.035156 303.335938 761.863281 303.222656 761.71875 303.074219 C 761.570312 302.925781 761.457031 302.757812 761.378906 302.566406 C 761.296875 302.371094 761.257812 302.171875 761.257812 301.964844 L 761.257812 230.816406 L 680.234375 230.816406 L 680.234375 301.964844 C 680.234375 302.171875 680.195312 302.371094 680.117188 302.566406 C 680.035156 302.757812 679.921875 302.925781 679.777344 303.074219 C 679.628906 303.222656 679.460938 303.335938 679.265625 303.414062 C 679.074219 303.492188 678.875 303.53125 678.667969 303.53125 L 596.136719 303.53125 L 596.136719 406.769531 L 678.667969 406.769531 C 678.875 406.769531 679.074219 406.8125 679.265625 406.890625 C 679.460938 406.96875 679.628906 407.082031 679.777344 407.230469 C 679.921875 407.378906 680.035156 407.546875 680.117188 407.738281 C 680.195312 407.929688 680.234375 408.132812 680.234375 408.339844 Z M 680.234375 478.539062 " fill-opacity="1" fill-rule="nonzero"/></g><g clip-path="url(#3a5ade5e7d)"><path fill="#ffffff" d="M 720.5625 434.777344 C 719.949219 434 718.589844 432.476562 717.546875 431.386719 C 712.464844 426.082031 708.363281 422.648438 696.949219 414.164062 C 684.90625 405.207031 681.683594 402.550781 676.207031 397.054688 C 671.144531 391.972656 667.546875 387.574219 664.085938 382.253906 C 652.742188 364.789062 649.273438 344.503906 654.933594 328.695312 C 659.871094 314.898438 670.816406 305.277344 684.757812 302.480469 C 687.398438 301.949219 688.78125 301.855469 686.5625 302.359375 C 676.757812 304.570312 668.261719 310.621094 662.226562 319.6875 C 652.421875 334.417969 651.496094 354.535156 659.777344 373 C 660.609375 374.859375 661.03125 375.511719 661.03125 374.941406 C 661.03125 374.65625 662.894531 371.703125 664.191406 369.9375 C 665.992188 367.484375 667.996094 365.242188 670.484375 362.90625 C 672.296875 361.199219 672.832031 360.578125 673.351562 359.59375 C 674.039062 358.28125 675.167969 354.980469 675.527344 353.222656 L 675.753906 352.125 L 677.476562 352.195312 L 679.203125 352.265625 L 679.648438 351.308594 C 680.039062 350.476562 680.097656 350.136719 680.082031 348.710938 C 680.074219 347.722656 679.890625 346.136719 679.617188 344.714844 C 679.367188 343.417969 679.039062 341.203125 678.882812 339.796875 C 678.730469 338.386719 678.417969 336.3125 678.1875 335.1875 C 676.347656 326.15625 676.398438 321.160156 678.367188 317.003906 C 679.210938 315.222656 679.9375 314.238281 680.820312 313.675781 L 681.59375 313.1875 L 681.148438 312.898438 C 680.503906 312.472656 680.78125 312.25 681.847656 312.335938 C 682.355469 312.378906 682.773438 312.390625 682.773438 312.367188 C 682.773438 312.339844 682.570312 312.097656 682.324219 311.832031 L 681.875 311.351562 L 682.929688 311.296875 L 683.984375 311.246094 L 684.589844 309.972656 C 685.640625 307.757812 687.964844 306.046875 690.710938 305.464844 C 692.230469 305.140625 694.132812 305.222656 697.023438 305.730469 C 698.0625 305.910156 699.488281 306.113281 700.199219 306.175781 C 703.21875 306.441406 707.417969 307.855469 710.816406 309.753906 C 711.859375 310.335938 713.589844 311.257812 714.65625 311.800781 C 718.105469 313.550781 720.570312 315.625 722.238281 318.1875 C 723.277344 319.777344 723.578125 320.757812 723.457031 322.128906 C 723.28125 324.046875 721.566406 326.253906 719.746094 326.898438 L 718.871094 327.210938 L 718.753906 332.773438 L 718.09375 333.730469 C 716.988281 335.335938 717.160156 336.222656 719.253906 339.785156 C 720.285156 341.539062 720.738281 342.613281 720.738281 343.3125 C 720.738281 343.921875 719.929688 344.640625 718.839844 344.996094 C 717.371094 345.472656 717.230469 345.664062 717.359375 346.941406 C 717.421875 347.53125 717.515625 348.136719 717.570312 348.28125 C 717.632812 348.445312 717.40625 348.804688 716.964844 349.246094 C 716.277344 349.933594 716.265625 349.964844 716.515625 350.445312 C 716.9375 351.261719 716.839844 351.859375 716.175781 352.5 L 715.578125 353.078125 L 715.609375 354.648438 C 715.636719 356.308594 715.441406 356.945312 714.636719 357.832031 C 713.664062 358.902344 712.152344 358.984375 708.140625 358.1875 C 705.210938 357.609375 704.089844 357.597656 703.339844 358.148438 C 703.085938 358.335938 702.09375 359.402344 701.136719 360.515625 L 699.394531 362.539062 L 700.328125 363.953125 C 700.84375 364.730469 701.78125 366.289062 702.414062 367.414062 C 703.203125 368.8125 703.707031 369.519531 704 369.644531 C 707.382812 371.066406 708.523438 371.917969 709.339844 373.628906 C 709.617188 374.210938 710.230469 376.007812 710.707031 377.621094 C 711.183594 379.238281 712.015625 381.800781 712.558594 383.316406 C 714.660156 389.203125 715.222656 391.503906 719.277344 410.839844 C 722.214844 424.863281 721.980469 423.863281 722.230469 423.390625 C 722.636719 422.617188 723.15625 420.265625 723.15625 419.207031 C 723.15625 417.898438 722.859375 416.878906 721.6875 414.117188 C 720.355469 410.980469 720.144531 410.175781 720.144531 408.164062 C 720.140625 404.636719 721.074219 403.253906 727.367188 397.464844 C 731.609375 393.5625 733.90625 390.53125 739.148438 381.914062 C 742.894531 375.757812 742.828125 375.890625 742.828125 374.160156 C 742.828125 372.414062 742.472656 371.1875 741.101562 368.222656 C 740.550781 367.03125 739.742188 365.207031 739.296875 364.167969 C 738.335938 361.910156 737.730469 361.101562 736.550781 360.496094 C 735.695312 360.054688 735.535156 360.035156 731.613281 359.914062 C 729.382812 359.847656 727.277344 359.707031 726.933594 359.601562 C 725.539062 359.171875 724.914062 357.960938 725.226562 356.304688 C 725.492188 354.902344 725.4375 354.339844 724.96875 353.648438 C 724.445312 352.878906 724.410156 352.023438 724.878906 351.429688 L 725.222656 350.992188 L 724.535156 350.304688 C 723.867188 349.640625 723.660156 349.019531 724.019531 348.796875 C 724.269531 348.644531 724.882812 347.402344 724.882812 347.050781 C 724.882812 346.886719 724.453125 346.359375 723.933594 345.871094 C 723.191406 345.179688 722.984375 344.875 722.984375 344.472656 C 722.984375 343.742188 723.292969 343.375 725.210938 341.824219 C 728.386719 339.25 728.894531 338.382812 728.523438 336.183594 C 728.339844 335.070312 728.347656 334.773438 728.59375 333.921875 C 728.949219 332.699219 730.03125 330.523438 731.046875 328.988281 C 731.699219 328 731.808594 327.714844 731.742188 327.175781 C 731.613281 326.125 731.917969 324.265625 732.386719 323.28125 C 732.929688 322.128906 734.328125 320.785156 735.703125 320.089844 C 736.894531 319.488281 740.152344 318.507812 742.714844 317.976562 C 744.195312 317.671875 744.867188 317.628906 747.058594 317.699219 C 753.894531 317.929688 760.160156 320.632812 763.5625 324.828125 L 764.453125 325.921875 L 764.910156 325.308594 C 766.609375 323.035156 769.535156 322.941406 770.636719 325.128906 C 770.835938 325.523438 771.027344 325.875 771.058594 325.910156 C 771.089844 325.945312 771.324219 325.730469 771.574219 325.429688 C 772.179688 324.710938 772.855469 324.378906 773.710938 324.378906 L 774.410156 324.378906 L 774.410156 323.644531 C 774.414062 321.53125 776.511719 320.613281 778.558594 321.835938 C 780.46875 322.976562 781.167969 325.210938 780.210938 327.101562 L 779.796875 327.917969 L 780.5625 327.855469 C 782.109375 327.730469 783.222656 328.636719 783.34375 330.125 L 783.421875 331.046875 L 784.21875 331.261719 C 784.65625 331.378906 785.269531 331.667969 785.582031 331.90625 C 785.890625 332.140625 786.144531 332.300781 786.144531 332.257812 C 786.144531 331.777344 784.460938 327.515625 783.472656 325.496094 C 778.25 314.835938 769.617188 307.15625 759.308594 303.992188 C 757.253906 303.363281 757.933594 303.367188 760.429688 304.003906 C 765.550781 305.304688 770.472656 307.699219 774.238281 310.722656 C 778.175781 313.886719 781.9375 318.574219 784.386719 323.363281 C 789.777344 333.914062 790.722656 345.578125 787.339844 359.753906 C 786.730469 362.308594 785.605469 366.179688 785.507812 366.078125 C 785.464844 366.039062 785.632812 365.320312 785.878906 364.476562 C 786.46875 362.457031 787.433594 357.613281 787.789062 354.925781 C 788.054688 352.910156 788.347656 345.425781 788.1875 344.65625 C 788.136719 344.398438 787.953125 344.621094 787.476562 345.519531 C 786.648438 347.074219 785.714844 348.300781 784.847656 348.964844 C 784.167969 349.488281 784.160156 349.507812 784.160156 350.625 C 784.160156 351.539062 784.078125 351.875 783.742188 352.363281 C 782.539062 354.121094 780.257812 354.546875 778.964844 353.257812 L 778.367188 352.660156 L 778.015625 353.453125 C 777.824219 353.890625 777.691406 354.417969 777.71875 354.628906 C 777.769531 354.988281 777.847656 355.007812 778.9375 354.949219 C 779.941406 354.898438 780.203125 354.949219 780.863281 355.335938 C 782.0625 356.039062 782.617188 357.464844 782.164062 358.667969 C 781.742188 359.777344 780.695312 360.464844 779.410156 360.472656 C 777.859375 360.484375 776.480469 359.390625 776.480469 358.148438 C 776.480469 357.269531 776.3125 357.726562 775.871094 359.820312 C 775.40625 362.019531 775.34375 363.042969 775.632812 363.871094 C 775.785156 364.308594 775.960938 364.445312 776.539062 364.585938 C 778.175781 364.984375 779.074219 365.800781 779.320312 367.101562 C 779.492188 368.019531 779.085938 368.558594 778.226562 368.558594 C 777.832031 368.558594 777.390625 368.421875 777.136719 368.222656 C 776.476562 367.703125 775.664062 366.007812 775.394531 364.585938 L 775.148438 363.292969 L 775.035156 364.15625 C 774.757812 366.175781 774.5625 366.890625 774.113281 367.515625 C 773.441406 368.453125 772.644531 368.941406 771.636719 369.039062 C 770.515625 369.144531 770.09375 368.804688 770.097656 367.796875 C 770.101562 366.65625 770.695312 365.828125 772.21875 364.828125 C 773.871094 363.742188 774.554688 363.117188 774.863281 362.394531 C 775.191406 361.625 775.160156 361.539062 774.710938 361.960938 C 774.066406 362.5625 772.839844 363.027344 771.875 363.03125 C 770.378906 363.039062 769.515625 362.535156 768.871094 361.273438 C 768.226562 360.015625 768.570312 359.152344 769.796875 358.953125 C 770.726562 358.800781 771.609375 359.191406 772.644531 360.210938 C 773.628906 361.183594 773.84375 361.257812 774.730469 360.949219 C 775.195312 360.785156 775.3125 360.621094 775.542969 359.78125 C 775.691406 359.246094 776.003906 358.242188 776.234375 357.554688 C 776.765625 355.96875 776.761719 355.933594 776.144531 356.785156 C 775.390625 357.824219 774.210938 358.457031 773.03125 358.453125 C 771.292969 358.449219 770.335938 357.480469 770.476562 355.867188 C 770.519531 355.398438 770.613281 354.875 770.6875 354.710938 C 770.792969 354.472656 770.742188 354.40625 770.457031 354.40625 C 769.851562 354.40625 768.894531 353.378906 768.546875 352.355469 C 768.195312 351.308594 768.128906 351.390625 767.875 353.203125 C 767.644531 354.851562 767.289062 355.535156 766.046875 356.738281 C 764.273438 358.449219 761.796875 359.585938 759.246094 359.859375 L 758.148438 359.980469 L 757.792969 360.773438 C 757.46875 361.507812 757.457031 361.6875 757.636719 363.121094 C 757.917969 365.332031 758.261719 366.503906 759.207031 368.488281 C 760.496094 371.1875 761.296875 372.453125 763.914062 375.941406 C 765.78125 378.425781 766.570312 379.648438 767.34375 381.242188 C 768.699219 384.039062 770.003906 388.378906 770.445312 391.5625 L 770.632812 392.910156 L 769.371094 394.40625 C 767.632812 396.46875 763.53125 400.566406 760.988281 402.785156 C 757.816406 405.550781 753.375 409.054688 747.316406 413.574219 C 735.980469 422.023438 732.058594 425.230469 727.539062 429.730469 C 725.117188 432.144531 722.78125 434.714844 721.703125 436.15625 C 721.6875 436.171875 721.175781 435.554688 720.5625 434.777344 Z M 720.5625 434.777344 " fill-opacity="1" fill-rule="nonzero"/></g><g fill="#88e4db" fill-opacity="1"><g transform="translate(514.095607, 568.434183)"><g><path d="M 3.671875 -50.5625 L 22.125 -50.5625 C 27.28125 -50.5625 31.445312 -49.234375 34.625 -46.578125 C 37.8125 -43.921875 39.40625 -40.0625 39.40625 -35 C 39.40625 -29.9375 37.789062 -25.960938 34.5625 -23.078125 C 31.34375 -20.191406 27.195312 -18.75 22.125 -18.75 L 15.203125 -18.75 L 15.203125 0 L 3.671875 0 Z M 15.203125 -27.953125 L 18.453125 -27.953125 C 21.023438 -27.953125 23.140625 -28.472656 24.796875 -29.515625 C 26.453125 -30.554688 27.28125 -32.257812 27.28125 -34.625 C 27.28125 -37.039062 26.453125 -38.769531 24.796875 -39.8125 C 23.140625 -40.851562 21.023438 -41.375 18.453125 -41.375 L 15.203125 -41.375 Z M 15.203125 -27.953125 "/></g></g></g><g fill="#88e4db" fill-opacity="1"><g transform="translate(559.511581, 568.434183)"><g><path d="M 32.609375 -50.5625 L 32.609375 -40.453125 L 15.203125 -40.453125 L 15.203125 -30.40625 L 31.875 -30.40625 L 31.875 -20.296875 L 15.203125 -20.296875 L 15.203125 -10.109375 L 32.609375 -10.109375 L 32.609375 0 L 3.671875 0 L 3.671875 -50.5625 Z M 32.609375 -50.5625 "/></g></g></g><g fill="#88e4db" fill-opacity="1"><g transform="translate(599.656703, 568.434183)"><g><path d="M 3.671875 -50.5625 L 21.765625 -50.5625 C 26.628906 -50.5625 30.59375 -49.265625 33.65625 -46.671875 C 36.71875 -44.078125 38.25 -40.367188 38.25 -35.546875 C 38.25 -31.828125 37.316406 -28.710938 35.453125 -26.203125 C 33.597656 -23.691406 31.078125 -21.925781 27.890625 -20.90625 L 45.296875 0 L 30.65625 0 L 15.203125 -19.984375 L 15.203125 0 L 3.671875 0 Z M 15.203125 -28.140625 L 16.546875 -28.140625 C 17.609375 -28.140625 18.503906 -28.160156 19.234375 -28.203125 C 19.972656 -28.242188 20.8125 -28.382812 21.75 -28.625 C 22.695312 -28.875 23.457031 -29.222656 24.03125 -29.671875 C 24.601562 -30.117188 25.09375 -30.769531 25.5 -31.625 C 25.90625 -32.488281 26.109375 -33.53125 26.109375 -34.75 C 26.109375 -35.976562 25.90625 -37.019531 25.5 -37.875 C 25.09375 -38.738281 24.601562 -39.394531 24.03125 -39.84375 C 23.457031 -40.289062 22.695312 -40.632812 21.75 -40.875 C 20.8125 -41.125 19.972656 -41.269531 19.234375 -41.3125 C 18.503906 -41.351562 17.609375 -41.375 16.546875 -41.375 L 15.203125 -41.375 Z M 15.203125 -28.140625 "/></g></g></g><g fill="#88e4db" fill-opacity="1"><g transform="translate(648.137135, 568.434183)"><g><path d="M 30.59375 -10.421875 C 32.34375 -10.421875 34.046875 -10.6875 35.703125 -11.21875 C 37.359375 -11.75 38.578125 -12.257812 39.359375 -12.75 L 40.515625 -13.546875 L 45.421875 -3.734375 C 45.253906 -3.617188 45.023438 -3.457031 44.734375 -3.25 C 44.453125 -3.039062 43.789062 -2.660156 42.75 -2.109375 C 41.707031 -1.554688 40.59375 -1.078125 39.40625 -0.671875 C 38.226562 -0.265625 36.675781 0.0976562 34.75 0.421875 C 32.832031 0.753906 30.851562 0.921875 28.8125 0.921875 C 24.113281 0.921875 19.660156 -0.226562 15.453125 -2.53125 C 11.242188 -4.84375 7.847656 -8.019531 5.265625 -12.0625 C 2.691406 -16.113281 1.40625 -20.488281 1.40625 -25.1875 C 1.40625 -28.75 2.160156 -32.160156 3.671875 -35.421875 C 5.191406 -38.691406 7.207031 -41.492188 9.71875 -43.828125 C 12.226562 -46.160156 15.15625 -48.019531 18.5 -49.40625 C 21.851562 -50.789062 25.289062 -51.484375 28.8125 -51.484375 C 32.082031 -51.484375 35.09375 -51.09375 37.84375 -50.3125 C 40.601562 -49.539062 42.554688 -48.769531 43.703125 -48 L 45.421875 -46.828125 L 40.515625 -37.015625 C 40.234375 -37.265625 39.804688 -37.5625 39.234375 -37.90625 C 38.660156 -38.257812 37.515625 -38.722656 35.796875 -39.296875 C 34.078125 -39.867188 32.34375 -40.15625 30.59375 -40.15625 C 27.8125 -40.15625 25.316406 -39.703125 23.109375 -38.796875 C 20.898438 -37.898438 19.148438 -36.710938 17.859375 -35.234375 C 16.578125 -33.765625 15.597656 -32.179688 14.921875 -30.484375 C 14.253906 -28.796875 13.921875 -27.070312 13.921875 -25.3125 C 13.921875 -21.46875 15.359375 -18.023438 18.234375 -14.984375 C 21.117188 -11.941406 25.238281 -10.421875 30.59375 -10.421875 Z M 30.59375 -10.421875 "/></g></g></g><g fill="#88e4db" fill-opacity="1"><g transform="translate(698.885248, 568.434183)"><g><path d="M 29.359375 -50.5625 L 49.765625 0 L 37.390625 0 L 33.65625 -10.109375 L 14.40625 -10.109375 L 10.671875 0 L -1.71875 0 L 18.703125 -50.5625 Z M 29.734375 -20.234375 L 24.09375 -34.9375 L 23.96875 -34.9375 L 18.328125 -20.234375 Z M 29.734375 -20.234375 "/></g></g></g><g fill="#88e4db" fill-opacity="1"><g transform="translate(751.533332, 568.434183)"><g><path d="M 15.203125 -31.390625 L 15.203125 0 L 3.671875 0 L 3.671875 -50.5625 L 15.203125 -50.5625 L 35.3125 -19.1875 L 35.421875 -19.1875 L 35.421875 -50.5625 L 46.953125 -50.5625 L 46.953125 0 L 35.421875 0 L 15.328125 -31.390625 Z M 15.203125 -31.390625 "/></g></g></g><g fill="#88e4db" fill-opacity="1"><g transform="translate(806.755559, 568.434183)"><g><path d="M 0.484375 -40.453125 L 0.484375 -50.5625 L 36.046875 -50.5625 L 36.046875 -40.453125 L 24.03125 -40.453125 L 24.03125 0 L 12.5 0 L 12.5 -40.453125 Z M 0.484375 -40.453125 "/></g></g></g><g fill="#88e4db" fill-opacity="1"><g transform="translate(847.881297, 568.434183)"><g><path d="M 15.203125 -50.5625 L 15.203125 0 L 3.671875 0 L 3.671875 -50.5625 Z M 15.203125 -50.5625 "/></g></g></g><g fill="#88e4db" fill-opacity="1"><g transform="translate(871.355806, 568.434183)"><g><path d="M 15.203125 -31.390625 L 15.203125 0 L 3.671875 0 L 3.671875 -50.5625 L 15.203125 -50.5625 L 35.3125 -19.1875 L 35.421875 -19.1875 L 35.421875 -50.5625 L 46.953125 -50.5625 L 46.953125 0 L 35.421875 0 L 15.328125 -31.390625 Z M 15.203125 -31.390625 "/></g></g></g><g fill="#88e4db" fill-opacity="1"><g transform="translate(528.778414, 593.796292)"><g><path d="M 1.0625 -9.390625 C 1.0625 -9.523438 1.039062 -9.628906 1 -9.703125 C 0.96875 -9.785156 0.914062 -9.867188 0.84375 -9.953125 C 0.78125 -10.023438 0.734375 -10.082031 0.703125 -10.125 C 0.679688 -10.175781 0.675781 -10.242188 0.6875 -10.328125 C 0.726562 -10.492188 0.816406 -10.640625 0.953125 -10.765625 C 1.085938 -10.898438 1.242188 -10.96875 1.421875 -10.96875 C 1.597656 -10.96875 1.773438 -10.878906 1.953125 -10.703125 L 4.109375 -10.703125 C 5.410156 -10.703125 6.421875 -10.414062 7.140625 -9.84375 C 7.867188 -9.28125 8.234375 -8.421875 8.234375 -7.265625 C 8.234375 -6.117188 7.867188 -5.253906 7.140625 -4.671875 C 6.421875 -4.097656 5.441406 -3.8125 4.203125 -3.8125 L 2.390625 -3.8125 L 2.390625 0 L 1.0625 0 Z M 4.15625 -4.9375 C 5.050781 -4.9375 5.726562 -5.128906 6.1875 -5.515625 C 6.65625 -5.910156 6.890625 -6.492188 6.890625 -7.265625 C 6.890625 -8.003906 6.660156 -8.570312 6.203125 -8.96875 C 5.742188 -9.363281 5.054688 -9.5625 4.140625 -9.5625 L 2.390625 -9.5625 L 2.390625 -4.9375 Z M 4.15625 -4.9375 "/></g></g></g><g fill="#88e4db" fill-opacity="1"><g transform="translate(544.616146, 593.796292)"><g><path d="M 4.34375 0.15625 C 3.582031 0.15625 2.925781 0 2.375 -0.3125 C 1.832031 -0.632812 1.414062 -1.082031 1.125 -1.65625 C 0.832031 -2.226562 0.6875 -2.894531 0.6875 -3.65625 C 0.6875 -4.769531 0.972656 -5.695312 1.546875 -6.4375 C 2.117188 -7.1875 2.984375 -7.5625 4.140625 -7.5625 C 4.941406 -7.5625 5.601562 -7.375 6.125 -7 C 6.644531 -6.625 7.019531 -6.15625 7.25 -5.59375 C 7.488281 -5.039062 7.609375 -4.476562 7.609375 -3.90625 C 7.609375 -3.394531 7.316406 -3.140625 6.734375 -3.140625 L 1.984375 -3.140625 C 1.984375 -2.472656 2.191406 -1.9375 2.609375 -1.53125 C 3.023438 -1.132812 3.601562 -0.9375 4.34375 -0.9375 C 5.207031 -0.9375 5.921875 -1.191406 6.484375 -1.703125 L 7.15625 -0.953125 C 6.820312 -0.597656 6.410156 -0.320312 5.921875 -0.125 C 5.441406 0.0625 4.914062 0.15625 4.34375 0.15625 Z M 6.328125 -4.203125 C 6.328125 -4.859375 6.132812 -5.40625 5.75 -5.84375 C 5.375 -6.28125 4.835938 -6.5 4.140625 -6.5 C 3.671875 -6.5 3.269531 -6.382812 2.9375 -6.15625 C 2.613281 -5.9375 2.375 -5.648438 2.21875 -5.296875 C 2.0625 -4.941406 1.984375 -4.578125 1.984375 -4.203125 Z M 6.328125 -4.203125 "/></g></g></g><g fill="#88e4db" fill-opacity="1"><g transform="translate(559.827093, 593.796292)"><g><path d="M 10.28125 0.15625 C 9.957031 -0.40625 9.796875 -1.015625 9.796875 -1.671875 L 9.796875 -4.59375 C 9.796875 -5.25 9.691406 -5.726562 9.484375 -6.03125 C 9.285156 -6.332031 8.925781 -6.484375 8.40625 -6.484375 C 7.863281 -6.484375 7.445312 -6.296875 7.15625 -5.921875 C 6.863281 -5.546875 6.71875 -5.070312 6.71875 -4.5 L 6.71875 0 L 5.46875 0 L 5.46875 -4.59375 C 5.46875 -5.195312 5.351562 -5.660156 5.125 -5.984375 C 4.894531 -6.316406 4.539062 -6.484375 4.0625 -6.484375 C 3.5 -6.484375 3.066406 -6.265625 2.765625 -5.828125 C 2.460938 -5.390625 2.3125 -4.828125 2.3125 -4.140625 L 2.3125 0 L 1.03125 0 L 1.03125 -5.546875 C 1.03125 -5.910156 1.003906 -6.207031 0.953125 -6.4375 C 0.898438 -6.675781 0.8125 -6.90625 0.6875 -7.125 L 1.828125 -7.5625 C 1.929688 -7.382812 2.015625 -7.195312 2.078125 -7 C 2.148438 -6.800781 2.195312 -6.566406 2.21875 -6.296875 C 2.414062 -6.691406 2.703125 -7 3.078125 -7.21875 C 3.453125 -7.445312 3.851562 -7.5625 4.28125 -7.5625 C 5.21875 -7.5625 5.867188 -7.097656 6.234375 -6.171875 C 6.472656 -6.617188 6.796875 -6.960938 7.203125 -7.203125 C 7.609375 -7.441406 8.070312 -7.5625 8.59375 -7.5625 C 9.4375 -7.5625 10.0625 -7.316406 10.46875 -6.828125 C 10.875 -6.335938 11.078125 -5.675781 11.078125 -4.84375 L 11.078125 -1.671875 C 11.078125 -1.160156 11.195312 -0.707031 11.4375 -0.3125 Z M 10.28125 0.15625 "/></g></g></g><g fill="#88e4db" fill-opacity="1"><g transform="translate(578.859888, 593.796292)"><g><path d="M 4.34375 0.15625 C 3.582031 0.15625 2.925781 0 2.375 -0.3125 C 1.832031 -0.632812 1.414062 -1.082031 1.125 -1.65625 C 0.832031 -2.226562 0.6875 -2.894531 0.6875 -3.65625 C 0.6875 -4.769531 0.972656 -5.695312 1.546875 -6.4375 C 2.117188 -7.1875 2.984375 -7.5625 4.140625 -7.5625 C 4.941406 -7.5625 5.601562 -7.375 6.125 -7 C 6.644531 -6.625 7.019531 -6.15625 7.25 -5.59375 C 7.488281 -5.039062 7.609375 -4.476562 7.609375 -3.90625 C 7.609375 -3.394531 7.316406 -3.140625 6.734375 -3.140625 L 1.984375 -3.140625 C 1.984375 -2.472656 2.191406 -1.9375 2.609375 -1.53125 C 3.023438 -1.132812 3.601562 -0.9375 4.34375 -0.9375 C 5.207031 -0.9375 5.921875 -1.191406 6.484375 -1.703125 L 7.15625 -0.953125 C 6.820312 -0.597656 6.410156 -0.320312 5.921875 -0.125 C 5.441406 0.0625 4.914062 0.15625 4.34375 0.15625 Z M 6.328125 -4.203125 C 6.328125 -4.859375 6.132812 -5.40625 5.75 -5.84375 C 5.375 -6.28125 4.835938 -6.5 4.140625 -6.5 C 3.671875 -6.5 3.269531 -6.382812 2.9375 -6.15625 C 2.613281 -5.9375 2.375 -5.648438 2.21875 -5.296875 C 2.0625 -4.941406 1.984375 -4.578125 1.984375 -4.203125 Z M 6.328125 -4.203125 "/></g></g></g><g fill="#88e4db" fill-opacity="1"><g transform="translate(594.070834, 593.796292)"><g><path d="M 1.03125 -5.546875 C 1.03125 -5.890625 1 -6.179688 0.9375 -6.421875 C 0.882812 -6.671875 0.800781 -6.90625 0.6875 -7.125 L 1.828125 -7.5625 C 1.910156 -7.40625 1.988281 -7.207031 2.0625 -6.96875 C 2.144531 -6.726562 2.195312 -6.488281 2.21875 -6.25 C 2.46875 -6.6875 2.753906 -7.015625 3.078125 -7.234375 C 3.410156 -7.453125 3.800781 -7.5625 4.25 -7.5625 C 4.488281 -7.5625 4.703125 -7.53125 4.890625 -7.46875 C 5.085938 -7.414062 5.296875 -7.320312 5.515625 -7.1875 L 5.015625 -6.25 C 4.753906 -6.40625 4.460938 -6.484375 4.140625 -6.484375 C 3.546875 -6.484375 3.09375 -6.257812 2.78125 -5.8125 C 2.46875 -5.363281 2.3125 -4.785156 2.3125 -4.078125 L 2.3125 0 L 1.03125 0 Z M 1.03125 -5.546875 "/></g></g></g><g fill="#88e4db" fill-opacity="1"><g transform="translate(607.034516, 593.796292)"><g><path d="M 1.859375 -9.015625 C 1.597656 -9.015625 1.375 -9.101562 1.1875 -9.28125 C 1.007812 -9.457031 0.921875 -9.675781 0.921875 -9.9375 C 0.921875 -10.1875 1.007812 -10.398438 1.1875 -10.578125 C 1.375 -10.753906 1.597656 -10.84375 1.859375 -10.84375 C 2.128906 -10.84375 2.351562 -10.753906 2.53125 -10.578125 C 2.71875 -10.398438 2.8125 -10.1875 2.8125 -9.9375 C 2.8125 -9.675781 2.71875 -9.457031 2.53125 -9.28125 C 2.351562 -9.101562 2.128906 -9.015625 1.859375 -9.015625 Z M 1.203125 -7.40625 L 2.484375 -7.40625 L 2.484375 0 L 1.203125 0 Z M 1.203125 -7.40625 "/></g></g></g><g fill="#88e4db" fill-opacity="1"><g transform="translate(617.67452, 593.796292)"><g><path d="M 0.921875 -11.21875 L 2.203125 -11.21875 L 2.203125 -4.8125 L 4.984375 -7.40625 L 6.609375 -7.40625 L 2.953125 -4.015625 L 7.109375 0 L 5.4375 0 L 2.203125 -3.15625 L 2.203125 0 L 0.921875 0 Z M 0.921875 -11.21875 "/></g></g></g><g fill="#88e4db" fill-opacity="1"><g transform="translate(631.998788, 593.796292)"><g><path d="M 3.953125 0.15625 C 3.265625 0.15625 2.644531 0.0507812 2.09375 -0.15625 C 1.539062 -0.375 1.070312 -0.675781 0.6875 -1.0625 L 1.46875 -1.90625 C 1.757812 -1.59375 2.125 -1.347656 2.5625 -1.171875 C 3.007812 -0.992188 3.472656 -0.90625 3.953125 -0.90625 C 4.429688 -0.90625 4.796875 -0.976562 5.046875 -1.125 C 5.304688 -1.28125 5.4375 -1.507812 5.4375 -1.8125 C 5.4375 -2.03125 5.390625 -2.203125 5.296875 -2.328125 C 5.210938 -2.460938 5.039062 -2.597656 4.78125 -2.734375 C 4.53125 -2.867188 4.128906 -3.023438 3.578125 -3.203125 C 2.628906 -3.535156 1.957031 -3.867188 1.5625 -4.203125 C 1.164062 -4.535156 0.96875 -4.992188 0.96875 -5.578125 C 0.96875 -6.191406 1.207031 -6.675781 1.6875 -7.03125 C 2.164062 -7.382812 2.84375 -7.5625 3.71875 -7.5625 C 4.226562 -7.5625 4.695312 -7.488281 5.125 -7.34375 C 5.5625 -7.195312 5.941406 -7.003906 6.265625 -6.765625 L 5.78125 -5.859375 C 5.425781 -6.085938 5.085938 -6.253906 4.765625 -6.359375 C 4.441406 -6.460938 4.085938 -6.515625 3.703125 -6.515625 C 3.222656 -6.515625 2.859375 -6.425781 2.609375 -6.25 C 2.367188 -6.082031 2.25 -5.859375 2.25 -5.578125 C 2.25 -5.347656 2.3125 -5.160156 2.4375 -5.015625 C 2.570312 -4.878906 2.75 -4.757812 2.96875 -4.65625 C 3.195312 -4.5625 3.582031 -4.414062 4.125 -4.21875 C 4.800781 -3.96875 5.316406 -3.738281 5.671875 -3.53125 C 6.035156 -3.332031 6.300781 -3.097656 6.46875 -2.828125 C 6.632812 -2.566406 6.71875 -2.222656 6.71875 -1.796875 C 6.71875 -1.191406 6.472656 -0.710938 5.984375 -0.359375 C 5.503906 -0.015625 4.828125 0.15625 3.953125 0.15625 Z M 3.953125 0.15625 "/></g></g></g><g fill="#88e4db" fill-opacity="1"><g transform="translate(646.323047, 593.796292)"><g><path d="M 3.921875 0.15625 C 3.253906 0.15625 2.675781 -0.0078125 2.1875 -0.34375 C 1.695312 -0.675781 1.320312 -1.125 1.0625 -1.6875 C 0.8125 -2.257812 0.6875 -2.910156 0.6875 -3.640625 C 0.6875 -4.378906 0.816406 -5.046875 1.078125 -5.640625 C 1.335938 -6.242188 1.71875 -6.710938 2.21875 -7.046875 C 2.71875 -7.390625 3.316406 -7.5625 4.015625 -7.5625 C 5.023438 -7.5625 5.804688 -7.15625 6.359375 -6.34375 L 6.359375 -7.40625 L 7.609375 -7.40625 L 7.609375 -1.90625 C 7.609375 -1.195312 7.726562 -0.65625 7.96875 -0.28125 L 6.90625 0.15625 C 6.664062 -0.144531 6.523438 -0.570312 6.484375 -1.125 L 6.4375 -1.140625 C 5.8125 -0.273438 4.972656 0.15625 3.921875 0.15625 Z M 4.09375 -0.921875 C 4.820312 -0.921875 5.378906 -1.148438 5.765625 -1.609375 C 6.160156 -2.078125 6.359375 -2.664062 6.359375 -3.375 L 6.359375 -4.015625 C 6.359375 -4.421875 6.273438 -4.8125 6.109375 -5.1875 C 5.941406 -5.570312 5.6875 -5.882812 5.34375 -6.125 C 5.007812 -6.375 4.601562 -6.5 4.125 -6.5 C 3.4375 -6.5 2.90625 -6.234375 2.53125 -5.703125 C 2.164062 -5.179688 1.984375 -4.492188 1.984375 -3.640625 C 1.984375 -2.816406 2.164062 -2.15625 2.53125 -1.65625 C 2.894531 -1.164062 3.414062 -0.921875 4.09375 -0.921875 Z M 4.09375 -0.921875 "/></g></g></g><g fill="#88e4db" fill-opacity="1"><g transform="translate(661.885598, 593.796292)"><g><path d="M 3.921875 0.15625 C 3.253906 0.15625 2.675781 -0.0078125 2.1875 -0.34375 C 1.695312 -0.675781 1.320312 -1.125 1.0625 -1.6875 C 0.8125 -2.257812 0.6875 -2.910156 0.6875 -3.640625 C 0.6875 -4.378906 0.816406 -5.046875 1.078125 -5.640625 C 1.335938 -6.242188 1.71875 -6.710938 2.21875 -7.046875 C 2.71875 -7.390625 3.316406 -7.5625 4.015625 -7.5625 C 5.023438 -7.5625 5.804688 -7.15625 6.359375 -6.34375 L 6.359375 -7.40625 L 7.609375 -7.40625 L 7.609375 -1.90625 C 7.609375 -1.195312 7.726562 -0.65625 7.96875 -0.28125 L 6.90625 0.15625 C 6.664062 -0.144531 6.523438 -0.570312 6.484375 -1.125 L 6.4375 -1.140625 C 5.8125 -0.273438 4.972656 0.15625 3.921875 0.15625 Z M 4.09375 -0.921875 C 4.820312 -0.921875 5.378906 -1.148438 5.765625 -1.609375 C 6.160156 -2.078125 6.359375 -2.664062 6.359375 -3.375 L 6.359375 -4.015625 C 6.359375 -4.421875 6.273438 -4.8125 6.109375 -5.1875 C 5.941406 -5.570312 5.6875 -5.882812 5.34375 -6.125 C 5.007812 -6.375 4.601562 -6.5 4.125 -6.5 C 3.4375 -6.5 2.90625 -6.234375 2.53125 -5.703125 C 2.164062 -5.179688 1.984375 -4.492188 1.984375 -3.640625 C 1.984375 -2.816406 2.164062 -2.15625 2.53125 -1.65625 C 2.894531 -1.164062 3.414062 -0.921875 4.09375 -0.921875 Z M 4.09375 -0.921875 "/></g></g></g><g fill="#88e4db" fill-opacity="1"><g transform="translate(677.44815, 593.796292)"><g><path d="M 6.515625 0.15625 C 6.179688 -0.40625 6.015625 -1.015625 6.015625 -1.671875 L 6.015625 -4.5625 C 6.015625 -5.21875 5.882812 -5.703125 5.625 -6.015625 C 5.363281 -6.328125 4.953125 -6.484375 4.390625 -6.484375 C 3.984375 -6.484375 3.617188 -6.367188 3.296875 -6.140625 C 2.984375 -5.921875 2.738281 -5.617188 2.5625 -5.234375 C 2.394531 -4.859375 2.3125 -4.457031 2.3125 -4.03125 L 2.3125 0 L 1.03125 0 L 1.03125 -5.546875 C 1.03125 -5.890625 1 -6.179688 0.9375 -6.421875 C 0.882812 -6.671875 0.800781 -6.90625 0.6875 -7.125 L 1.828125 -7.5625 C 1.910156 -7.40625 1.988281 -7.207031 2.0625 -6.96875 C 2.144531 -6.726562 2.195312 -6.488281 2.21875 -6.25 C 2.476562 -6.65625 2.828125 -6.972656 3.265625 -7.203125 C 3.710938 -7.441406 4.191406 -7.5625 4.703125 -7.5625 C 5.578125 -7.5625 6.226562 -7.300781 6.65625 -6.78125 C 7.082031 -6.269531 7.296875 -5.523438 7.296875 -4.546875 L 7.296875 -1.671875 C 7.296875 -1.160156 7.414062 -0.707031 7.65625 -0.3125 Z M 6.515625 0.15625 "/></g></g></g><g fill="#88e4db" fill-opacity="1"><g transform="translate(692.704948, 593.796292)"><g/></g></g><g fill="#88e4db" fill-opacity="1"><g transform="translate(703.558967, 593.796292)"><g><path d="M 5.546875 0.15625 C 4.546875 0.15625 3.679688 -0.0703125 2.953125 -0.53125 C 2.222656 -0.988281 1.660156 -1.632812 1.265625 -2.46875 C 0.878906 -3.300781 0.6875 -4.265625 0.6875 -5.359375 C 0.6875 -6.460938 0.875 -7.425781 1.25 -8.25 C 1.632812 -9.070312 2.179688 -9.707031 2.890625 -10.15625 C 3.609375 -10.613281 4.453125 -10.84375 5.421875 -10.84375 C 6.035156 -10.84375 6.609375 -10.738281 7.140625 -10.53125 C 7.679688 -10.320312 8.132812 -10.03125 8.5 -9.65625 L 7.953125 -8.6875 C 7.609375 -9.03125 7.238281 -9.289062 6.84375 -9.46875 C 6.445312 -9.644531 5.972656 -9.734375 5.421875 -9.734375 C 4.347656 -9.734375 3.515625 -9.335938 2.921875 -8.546875 C 2.328125 -7.765625 2.03125 -6.703125 2.03125 -5.359375 C 2.03125 -3.992188 2.335938 -2.921875 2.953125 -2.140625 C 3.578125 -1.359375 4.453125 -0.96875 5.578125 -0.96875 C 6.585938 -0.96875 7.390625 -1.296875 7.984375 -1.953125 L 8.796875 -1.1875 C 8.398438 -0.757812 7.914062 -0.425781 7.34375 -0.1875 C 6.769531 0.0390625 6.171875 0.15625 5.546875 0.15625 Z M 5.546875 0.15625 "/></g></g></g><g fill="#88e4db" fill-opacity="1"><g transform="translate(719.962326, 593.796292)"><g><path d="M 3.921875 0.15625 C 3.253906 0.15625 2.675781 -0.0078125 2.1875 -0.34375 C 1.695312 -0.675781 1.320312 -1.125 1.0625 -1.6875 C 0.8125 -2.257812 0.6875 -2.910156 0.6875 -3.640625 C 0.6875 -4.378906 0.816406 -5.046875 1.078125 -5.640625 C 1.335938 -6.242188 1.71875 -6.710938 2.21875 -7.046875 C 2.71875 -7.390625 3.316406 -7.5625 4.015625 -7.5625 C 5.023438 -7.5625 5.804688 -7.15625 6.359375 -6.34375 L 6.359375 -7.40625 L 7.609375 -7.40625 L 7.609375 -1.90625 C 7.609375 -1.195312 7.726562 -0.65625 7.96875 -0.28125 L 6.90625 0.15625 C 6.664062 -0.144531 6.523438 -0.570312 6.484375 -1.125 L 6.4375 -1.140625 C 5.8125 -0.273438 4.972656 0.15625 3.921875 0.15625 Z M 4.09375 -0.921875 C 4.820312 -0.921875 5.378906 -1.148438 5.765625 -1.609375 C 6.160156 -2.078125 6.359375 -2.664062 6.359375 -3.375 L 6.359375 -4.015625 C 6.359375 -4.421875 6.273438 -4.8125 6.109375 -5.1875 C 5.941406 -5.570312 5.6875 -5.882812 5.34375 -6.125 C 5.007812 -6.375 4.601562 -6.5 4.125 -6.5 C 3.4375 -6.5 2.90625 -6.234375 2.53125 -5.703125 C 2.164062 -5.179688 1.984375 -4.492188 1.984375 -3.640625 C 1.984375 -2.816406 2.164062 -2.15625 2.53125 -1.65625 C 2.894531 -1.164062 3.414062 -0.921875 4.09375 -0.921875 Z M 4.09375 -0.921875 "/></g></g></g><g fill="#88e4db" fill-opacity="1"><g transform="translate(735.524877, 593.796292)"><g><path d="M 0.921875 -11.21875 L 2.203125 -11.21875 L 2.203125 0 L 0.921875 0 Z M 0.921875 -11.21875 "/></g></g></g><g fill="#88e4db" fill-opacity="1"><g transform="translate(745.553369, 593.796292)"><g><path d="M 4.1875 0.15625 C 3.4375 0.15625 2.796875 -0.015625 2.265625 -0.359375 C 1.742188 -0.703125 1.347656 -1.160156 1.078125 -1.734375 C 0.816406 -2.316406 0.6875 -2.976562 0.6875 -3.71875 C 0.6875 -4.4375 0.816406 -5.085938 1.078125 -5.671875 C 1.347656 -6.265625 1.742188 -6.726562 2.265625 -7.0625 C 2.796875 -7.394531 3.4375 -7.5625 4.1875 -7.5625 C 4.9375 -7.5625 5.570312 -7.394531 6.09375 -7.0625 C 6.625 -6.726562 7.019531 -6.265625 7.28125 -5.671875 C 7.550781 -5.085938 7.6875 -4.4375 7.6875 -3.71875 C 7.6875 -2.976562 7.550781 -2.316406 7.28125 -1.734375 C 7.019531 -1.160156 6.625 -0.703125 6.09375 -0.359375 C 5.570312 -0.015625 4.9375 0.15625 4.1875 0.15625 Z M 4.1875 -0.9375 C 4.894531 -0.9375 5.4375 -1.1875 5.8125 -1.6875 C 6.1875 -2.1875 6.375 -2.863281 6.375 -3.71875 C 6.375 -4.550781 6.1875 -5.21875 5.8125 -5.71875 C 5.4375 -6.226562 4.894531 -6.484375 4.1875 -6.484375 C 3.476562 -6.484375 2.9375 -6.226562 2.5625 -5.71875 C 2.1875 -5.21875 2 -4.550781 2 -3.71875 C 2 -2.863281 2.1875 -2.1875 2.5625 -1.6875 C 2.9375 -1.1875 3.476562 -0.9375 4.1875 -0.9375 Z M 4.1875 -0.9375 "/></g></g></g><g fill="#88e4db" fill-opacity="1"><g transform="translate(760.840744, 593.796292)"><g><path d="M 6.515625 0.15625 C 6.179688 -0.40625 6.015625 -1.015625 6.015625 -1.671875 L 6.015625 -4.5625 C 6.015625 -5.21875 5.882812 -5.703125 5.625 -6.015625 C 5.363281 -6.328125 4.953125 -6.484375 4.390625 -6.484375 C 3.984375 -6.484375 3.617188 -6.367188 3.296875 -6.140625 C 2.984375 -5.921875 2.738281 -5.617188 2.5625 -5.234375 C 2.394531 -4.859375 2.3125 -4.457031 2.3125 -4.03125 L 2.3125 0 L 1.03125 0 L 1.03125 -5.546875 C 1.03125 -5.890625 1 -6.179688 0.9375 -6.421875 C 0.882812 -6.671875 0.800781 -6.90625 0.6875 -7.125 L 1.828125 -7.5625 C 1.910156 -7.40625 1.988281 -7.207031 2.0625 -6.96875 C 2.144531 -6.726562 2.195312 -6.488281 2.21875 -6.25 C 2.476562 -6.65625 2.828125 -6.972656 3.265625 -7.203125 C 3.710938 -7.441406 4.191406 -7.5625 4.703125 -7.5625 C 5.578125 -7.5625 6.226562 -7.300781 6.65625 -6.78125 C 7.082031 -6.269531 7.296875 -5.523438 7.296875 -4.546875 L 7.296875 -1.671875 C 7.296875 -1.160156 7.414062 -0.707031 7.65625 -0.3125 Z M 6.515625 0.15625 "/></g></g></g><g fill="#88e4db" fill-opacity="1"><g transform="translate(776.097542, 593.796292)"><g/></g></g><g fill="#88e4db" fill-opacity="1"><g transform="translate(786.951562, 593.796292)"><g><path d="M 1.0625 -9.390625 C 1.0625 -9.523438 1.039062 -9.628906 1 -9.703125 C 0.96875 -9.785156 0.914062 -9.867188 0.84375 -9.953125 C 0.78125 -10.023438 0.734375 -10.082031 0.703125 -10.125 C 0.679688 -10.175781 0.675781 -10.242188 0.6875 -10.328125 C 0.726562 -10.492188 0.816406 -10.640625 0.953125 -10.765625 C 1.085938 -10.898438 1.242188 -10.96875 1.421875 -10.96875 C 1.597656 -10.96875 1.773438 -10.878906 1.953125 -10.703125 L 4.109375 -10.703125 C 5.410156 -10.703125 6.421875 -10.414062 7.140625 -9.84375 C 7.867188 -9.28125 8.234375 -8.421875 8.234375 -7.265625 C 8.234375 -6.117188 7.867188 -5.253906 7.140625 -4.671875 C 6.421875 -4.097656 5.441406 -3.8125 4.203125 -3.8125 L 2.390625 -3.8125 L 2.390625 0 L 1.0625 0 Z M 4.15625 -4.9375 C 5.050781 -4.9375 5.726562 -5.128906 6.1875 -5.515625 C 6.65625 -5.910156 6.890625 -6.492188 6.890625 -7.265625 C 6.890625 -8.003906 6.660156 -8.570312 6.203125 -8.96875 C 5.742188 -9.363281 5.054688 -9.5625 4.140625 -9.5625 L 2.390625 -9.5625 L 2.390625 -4.9375 Z M 4.15625 -4.9375 "/></g></g></g><g fill="#88e4db" fill-opacity="1"><g transform="translate(802.789289, 593.796292)"><g><path d="M 4.34375 0.15625 C 3.582031 0.15625 2.925781 0 2.375 -0.3125 C 1.832031 -0.632812 1.414062 -1.082031 1.125 -1.65625 C 0.832031 -2.226562 0.6875 -2.894531 0.6875 -3.65625 C 0.6875 -4.769531 0.972656 -5.695312 1.546875 -6.4375 C 2.117188 -7.1875 2.984375 -7.5625 4.140625 -7.5625 C 4.941406 -7.5625 5.601562 -7.375 6.125 -7 C 6.644531 -6.625 7.019531 -6.15625 7.25 -5.59375 C 7.488281 -5.039062 7.609375 -4.476562 7.609375 -3.90625 C 7.609375 -3.394531 7.316406 -3.140625 6.734375 -3.140625 L 1.984375 -3.140625 C 1.984375 -2.472656 2.191406 -1.9375 2.609375 -1.53125 C 3.023438 -1.132812 3.601562 -0.9375 4.34375 -0.9375 C 5.207031 -0.9375 5.921875 -1.191406 6.484375 -1.703125 L 7.15625 -0.953125 C 6.820312 -0.597656 6.410156 -0.320312 5.921875 -0.125 C 5.441406 0.0625 4.914062 0.15625 4.34375 0.15625 Z M 6.328125 -4.203125 C 6.328125 -4.859375 6.132812 -5.40625 5.75 -5.84375 C 5.375 -6.28125 4.835938 -6.5 4.140625 -6.5 C 3.671875 -6.5 3.269531 -6.382812 2.9375 -6.15625 C 2.613281 -5.9375 2.375 -5.648438 2.21875 -5.296875 C 2.0625 -4.941406 1.984375 -4.578125 1.984375 -4.203125 Z M 6.328125 -4.203125 "/></g></g></g><g fill="#88e4db" fill-opacity="1"><g transform="translate(818.000231, 593.796292)"><g><path d="M 6.515625 0.15625 C 6.179688 -0.40625 6.015625 -1.015625 6.015625 -1.671875 L 6.015625 -4.5625 C 6.015625 -5.21875 5.882812 -5.703125 5.625 -6.015625 C 5.363281 -6.328125 4.953125 -6.484375 4.390625 -6.484375 C 3.984375 -6.484375 3.617188 -6.367188 3.296875 -6.140625 C 2.984375 -5.921875 2.738281 -5.617188 2.5625 -5.234375 C 2.394531 -4.859375 2.3125 -4.457031 2.3125 -4.03125 L 2.3125 0 L 1.03125 0 L 1.03125 -5.546875 C 1.03125 -5.890625 1 -6.179688 0.9375 -6.421875 C 0.882812 -6.671875 0.800781 -6.90625 0.6875 -7.125 L 1.828125 -7.5625 C 1.910156 -7.40625 1.988281 -7.207031 2.0625 -6.96875 C 2.144531 -6.726562 2.195312 -6.488281 2.21875 -6.25 C 2.476562 -6.65625 2.828125 -6.972656 3.265625 -7.203125 C 3.710938 -7.441406 4.191406 -7.5625 4.703125 -7.5625 C 5.578125 -7.5625 6.226562 -7.300781 6.65625 -6.78125 C 7.082031 -6.269531 7.296875 -5.523438 7.296875 -4.546875 L 7.296875 -1.671875 C 7.296875 -1.160156 7.414062 -0.707031 7.65625 -0.3125 Z M 6.515625 0.15625 "/></g></g></g><g fill="#88e4db" fill-opacity="1"><g transform="translate(833.257029, 593.796292)"><g><path d="M 3.875 3.328125 C 3.457031 3.328125 3.046875 3.28125 2.640625 3.1875 C 2.234375 3.09375 1.875 2.96875 1.5625 2.8125 L 1.953125 1.8125 C 2.210938 1.945312 2.507812 2.050781 2.84375 2.125 C 3.175781 2.207031 3.519531 2.25 3.875 2.25 C 4.757812 2.25 5.390625 2.023438 5.765625 1.578125 C 6.148438 1.140625 6.34375 0.46875 6.34375 -0.4375 L 6.34375 -1.203125 C 6.070312 -0.828125 5.738281 -0.53125 5.34375 -0.3125 C 4.945312 -0.101562 4.492188 0 3.984375 0 C 2.910156 0 2.09375 -0.347656 1.53125 -1.046875 C 0.96875 -1.742188 0.6875 -2.679688 0.6875 -3.859375 C 0.6875 -4.984375 0.972656 -5.878906 1.546875 -6.546875 C 2.117188 -7.222656 2.914062 -7.5625 3.9375 -7.5625 C 4.5 -7.5625 4.976562 -7.445312 5.375 -7.21875 C 5.78125 -7 6.140625 -6.679688 6.453125 -6.265625 C 6.460938 -6.535156 6.507812 -6.785156 6.59375 -7.015625 C 6.675781 -7.242188 6.78125 -7.425781 6.90625 -7.5625 L 7.984375 -7.140625 C 7.867188 -6.910156 7.78125 -6.679688 7.71875 -6.453125 C 7.65625 -6.222656 7.625 -5.898438 7.625 -5.484375 L 7.625 -0.390625 C 7.625 0.816406 7.289062 1.738281 6.625 2.375 C 5.957031 3.007812 5.039062 3.328125 3.875 3.328125 Z M 4.125 -1.0625 C 4.582031 -1.0625 4.976562 -1.175781 5.3125 -1.40625 C 5.65625 -1.644531 5.914062 -1.957031 6.09375 -2.34375 C 6.269531 -2.726562 6.359375 -3.128906 6.359375 -3.546875 L 6.359375 -4.046875 C 6.359375 -4.484375 6.269531 -4.890625 6.09375 -5.265625 C 5.914062 -5.640625 5.65625 -5.9375 5.3125 -6.15625 C 4.96875 -6.382812 4.5625 -6.5 4.09375 -6.5 C 3.382812 -6.5 2.851562 -6.253906 2.5 -5.765625 C 2.15625 -5.273438 1.984375 -4.640625 1.984375 -3.859375 C 1.984375 -3.003906 2.148438 -2.320312 2.484375 -1.8125 C 2.828125 -1.3125 3.375 -1.0625 4.125 -1.0625 Z M 4.125 -1.0625 "/></g></g></g><g fill="#88e4db" fill-opacity="1"><g transform="translate(848.850157, 593.796292)"><g><path d="M 3.921875 0.15625 C 3.253906 0.15625 2.675781 -0.0078125 2.1875 -0.34375 C 1.695312 -0.675781 1.320312 -1.125 1.0625 -1.6875 C 0.8125 -2.257812 0.6875 -2.910156 0.6875 -3.640625 C 0.6875 -4.378906 0.816406 -5.046875 1.078125 -5.640625 C 1.335938 -6.242188 1.71875 -6.710938 2.21875 -7.046875 C 2.71875 -7.390625 3.316406 -7.5625 4.015625 -7.5625 C 5.023438 -7.5625 5.804688 -7.15625 6.359375 -6.34375 L 6.359375 -7.40625 L 7.609375 -7.40625 L 7.609375 -1.90625 C 7.609375 -1.195312 7.726562 -0.65625 7.96875 -0.28125 L 6.90625 0.15625 C 6.664062 -0.144531 6.523438 -0.570312 6.484375 -1.125 L 6.4375 -1.140625 C 5.8125 -0.273438 4.972656 0.15625 3.921875 0.15625 Z M 4.09375 -0.921875 C 4.820312 -0.921875 5.378906 -1.148438 5.765625 -1.609375 C 6.160156 -2.078125 6.359375 -2.664062 6.359375 -3.375 L 6.359375 -4.015625 C 6.359375 -4.421875 6.273438 -4.8125 6.109375 -5.1875 C 5.941406 -5.570312 5.6875 -5.882812 5.34375 -6.125 C 5.007812 -6.375 4.601562 -6.5 4.125 -6.5 C 3.4375 -6.5 2.90625 -6.234375 2.53125 -5.703125 C 2.164062 -5.179688 1.984375 -4.492188 1.984375 -3.640625 C 1.984375 -2.816406 2.164062 -2.15625 2.53125 -1.65625 C 2.894531 -1.164062 3.414062 -0.921875 4.09375 -0.921875 Z M 4.09375 -0.921875 "/></g></g></g><g fill="#88e4db" fill-opacity="1"><g transform="translate(864.412728, 593.796292)"><g><path d="M 6.515625 0.15625 C 6.179688 -0.40625 6.015625 -1.015625 6.015625 -1.671875 L 6.015625 -4.5625 C 6.015625 -5.21875 5.882812 -5.703125 5.625 -6.015625 C 5.363281 -6.328125 4.953125 -6.484375 4.390625 -6.484375 C 3.984375 -6.484375 3.617188 -6.367188 3.296875 -6.140625 C 2.984375 -5.921875 2.738281 -5.617188 2.5625 -5.234375 C 2.394531 -4.859375 2.3125 -4.457031 2.3125 -4.03125 L 2.3125 0 L 1.03125 0 L 1.03125 -5.546875 C 1.03125 -5.890625 1 -6.179688 0.9375 -6.421875 C 0.882812 -6.671875 0.800781 -6.90625 0.6875 -7.125 L 1.828125 -7.5625 C 1.910156 -7.40625 1.988281 -7.207031 2.0625 -6.96875 C 2.144531 -6.726562 2.195312 -6.488281 2.21875 -6.25 C 2.476562 -6.65625 2.828125 -6.972656 3.265625 -7.203125 C 3.710938 -7.441406 4.191406 -7.5625 4.703125 -7.5625 C 5.578125 -7.5625 6.226562 -7.300781 6.65625 -6.78125 C 7.082031 -6.269531 7.296875 -5.523438 7.296875 -4.546875 L 7.296875 -1.671875 C 7.296875 -1.160156 7.414062 -0.707031 7.65625 -0.3125 Z M 6.515625 0.15625 "/></g></g></g><g fill="#88e4db" fill-opacity="1"><g transform="translate(879.669526, 593.796292)"><g><path d="M 3.734375 0.15625 C 3.085938 0.15625 2.609375 -0.0195312 2.296875 -0.375 C 1.984375 -0.726562 1.828125 -1.226562 1.828125 -1.875 L 1.828125 -6.34375 L 0.53125 -6.34375 L 0.8125 -7.40625 L 1.84375 -7.40625 L 1.84375 -9.296875 L 3.09375 -9.859375 L 3.09375 -7.40625 L 5 -7.40625 L 4.734375 -6.34375 L 3.125 -6.34375 L 3.125 -1.859375 C 3.125 -1.503906 3.179688 -1.253906 3.296875 -1.109375 C 3.410156 -0.972656 3.617188 -0.90625 3.921875 -0.90625 C 4.253906 -0.90625 4.539062 -0.960938 4.78125 -1.078125 L 5.109375 -0.125 C 4.953125 -0.0507812 4.738281 0.0078125 4.46875 0.0625 C 4.207031 0.125 3.960938 0.15625 3.734375 0.15625 Z M 3.734375 0.15625 "/></g></g></g><g fill="#88e4db" fill-opacity="1"><g transform="translate(892.220439, 593.796292)"><g><path d="M 1.859375 -9.015625 C 1.597656 -9.015625 1.375 -9.101562 1.1875 -9.28125 C 1.007812 -9.457031 0.921875 -9.675781 0.921875 -9.9375 C 0.921875 -10.1875 1.007812 -10.398438 1.1875 -10.578125 C 1.375 -10.753906 1.597656 -10.84375 1.859375 -10.84375 C 2.128906 -10.84375 2.351562 -10.753906 2.53125 -10.578125 C 2.71875 -10.398438 2.8125 -10.1875 2.8125 -9.9375 C 2.8125 -9.675781 2.71875 -9.457031 2.53125 -9.28125 C 2.351562 -9.101562 2.128906 -9.015625 1.859375 -9.015625 Z M 1.203125 -7.40625 L 2.484375 -7.40625 L 2.484375 0 L 1.203125 0 Z M 1.203125 -7.40625 "/></g></g></g><g fill="#88e4db" fill-opacity="1"><g transform="translate(902.860437, 593.796292)"><g><path d="M 6.515625 0.15625 C 6.179688 -0.40625 6.015625 -1.015625 6.015625 -1.671875 L 6.015625 -4.5625 C 6.015625 -5.21875 5.882812 -5.703125 5.625 -6.015625 C 5.363281 -6.328125 4.953125 -6.484375 4.390625 -6.484375 C 3.984375 -6.484375 3.617188 -6.367188 3.296875 -6.140625 C 2.984375 -5.921875 2.738281 -5.617188 2.5625 -5.234375 C 2.394531 -4.859375 2.3125 -4.457031 2.3125 -4.03125 L 2.3125 0 L 1.03125 0 L 1.03125 -5.546875 C 1.03125 -5.890625 1 -6.179688 0.9375 -6.421875 C 0.882812 -6.671875 0.800781 -6.90625 0.6875 -7.125 L 1.828125 -7.5625 C 1.910156 -7.40625 1.988281 -7.207031 2.0625 -6.96875 C 2.144531 -6.726562 2.195312 -6.488281 2.21875 -6.25 C 2.476562 -6.65625 2.828125 -6.972656 3.265625 -7.203125 C 3.710938 -7.441406 4.191406 -7.5625 4.703125 -7.5625 C 5.578125 -7.5625 6.226562 -7.300781 6.65625 -6.78125 C 7.082031 -6.269531 7.296875 -5.523438 7.296875 -4.546875 L 7.296875 -1.671875 C 7.296875 -1.160156 7.414062 -0.707031 7.65625 -0.3125 Z M 6.515625 0.15625 "/></g></g></g></svg>