<svg width="56" height="56" viewBox="0 0 56 56" fill="none" xmlns="http://www.w3.org/2000/svg">
<g clip-path="url(#clip0_433_117)">
<g filter="url(#filter0_d_433_117)">
<path fill-rule="evenodd" clip-rule="evenodd" d="M34.5229 5.454C33.5884 4.91967 32.5395 4.6665 31.4114 4.6665H25.2887C23.1607 4.6665 21.0082 5.65817 19.7132 7.45134L19.5872 7.61584L16.8607 11.1508L15.9145 12.412L15.9122 12.4143C14.475 14.3201 13.6978 16.6422 13.6982 19.0291C13.6987 21.4161 14.4767 23.7379 15.9145 25.6432L15.9215 25.6525L27.328 40.1215L35 49.904C35.1974 50.1556 35.4443 50.364 35.7255 50.5162C36.0068 50.6683 36.3163 50.7611 36.6349 50.7887C36.9534 50.8162 37.2743 50.778 37.5775 50.6764C37.8807 50.5748 38.1597 50.412 38.3974 50.198L43.141 45.9257C43.579 45.5312 43.8515 44.9855 43.9037 44.3983C43.9558 43.8112 43.7838 43.226 43.4222 42.7605L34.7539 31.6037L29.1632 24.536L22.8364 16.3647C23.5531 15.963 24.3621 15.7548 25.1837 15.7603H31.3052C32.0787 15.7603 32.872 15.9855 33.5697 16.3647L29.6789 21.3907L31.0007 23.0987L36.1807 29.646C36.1588 29.4871 36.1479 29.3269 36.148 29.1665V25.6665C35.223 25.6616 34.3376 25.2906 33.6852 24.6348C33.0329 23.979 32.6667 23.0915 32.6667 22.1665C32.6667 18.3258 35.7584 15.2353 39.5582 15.1677L39.648 15.1665H39.6854L39.7752 15.1677C40.6677 15.184 41.5217 15.366 42.3045 15.6857C41.9311 14.467 41.3458 13.3237 40.5755 12.3082L39.6282 11.0435L39.6177 11.0318L36.8982 7.505L36.8854 7.4875L36.8994 7.477C36.2285 6.539 35.322 5.91017 34.5229 5.454ZM25.1837 13.427C23.8735 13.427 22.5389 13.777 21.4025 14.505C20.8452 13.6922 20.546 12.7302 20.5439 11.7447C20.5439 10.7938 20.8437 9.84067 21.4469 9.02517L21.581 8.85017L21.5927 8.83384C22.4117 7.68817 23.8397 6.99984 25.2899 6.99984H31.4125C32.1825 6.99984 32.8242 7.169 33.3667 7.47934C34.0095 7.84684 34.5567 8.24934 34.9394 8.74867L34.9219 8.7615L35.0385 8.91317C35.6331 9.72509 35.9515 10.7064 35.9469 11.7127C35.9423 12.7191 35.6149 13.6974 35.0129 14.5038C33.9232 13.8388 32.627 13.427 31.3064 13.427H25.1837Z" fill="#FFFAFA"/>
</g>
<path d="M42.0001 22.1667C41.997 21.5488 41.7502 20.9571 41.3133 20.5201C40.8764 20.0832 40.2846 19.8364 39.6667 19.8333C38.3706 19.8438 37.3334 20.8903 37.3334 22.1667C37.3334 22.4761 37.2105 22.7728 36.9917 22.9916C36.7729 23.2104 36.4762 23.3333 36.1667 23.3333C35.8573 23.3333 35.5606 23.2104 35.3418 22.9916C35.123 22.7728 35.0001 22.4761 35.0001 22.1667C35.0031 20.9332 35.4932 19.7508 36.3637 18.8768C37.2342 18.0028 38.4146 17.508 39.6481 17.5H39.7227C42.2684 17.5408 44.3334 19.6093 44.3334 22.1667C44.3321 23.2039 43.9855 24.2112 43.3484 25.0298C42.7113 25.8483 41.8199 26.4316 40.8147 26.6875V29.1667C40.8147 29.4761 40.6918 29.7728 40.473 29.9916C40.2542 30.2104 39.9575 30.3333 39.6481 30.3333C39.3387 30.3333 39.0419 30.2104 38.8231 29.9916C38.6043 29.7728 38.4814 29.4761 38.4814 29.1667V25.6667C38.4814 25.3572 38.6043 25.0605 38.8231 24.8417C39.0419 24.6229 39.3387 24.5 39.6481 24.5C40.9524 24.5 42.0001 23.45 42.0001 22.1667ZM25.0321 41.9207L19.3282 34.6827L12.6433 43.2367C12.4527 43.4804 12.3125 43.7596 12.2309 44.0581C12.1492 44.3565 12.1278 44.6682 12.1677 44.975C12.2077 45.2819 12.3083 45.5777 12.4636 45.8452C12.6189 46.1128 12.826 46.3468 13.0726 46.5337L18.1814 50.4035C18.6693 50.7729 19.2827 50.9359 19.8896 50.8574C20.4965 50.7788 21.0482 50.465 21.4259 49.9835L26.3913 43.6532L25.0379 41.9265L25.0321 41.9207ZM40.8334 32.6667C40.8334 32.9761 40.7105 33.2728 40.4917 33.4916C40.2729 33.7104 39.9762 33.8333 39.6667 33.8333C39.3573 33.8333 39.0606 33.7104 38.8418 33.4916C38.623 33.2728 38.5001 32.9761 38.5001 32.6667C38.5001 32.3572 38.623 32.0605 38.8418 31.8417C39.0606 31.6229 39.3573 31.5 39.6667 31.5C39.9762 31.5 40.2729 31.6229 40.4917 31.8417C40.7105 32.0605 40.8334 32.3572 40.8334 32.6667Z" fill="#FFFAFA"/>
</g>
<defs>
<filter id="filter0_d_433_117" x="9.69824" y="4.6665" width="38.2146" height="54.1309" filterUnits="userSpaceOnUse" color-interpolation-filters="sRGB">
<feFlood flood-opacity="0" result="BackgroundImageFix"/>
<feColorMatrix in="SourceAlpha" type="matrix" values="0 0 0 0 0 0 0 0 0 0 0 0 0 0 0 0 0 0 127 0" result="hardAlpha"/>
<feOffset dy="4"/>
<feGaussianBlur stdDeviation="2"/>
<feComposite in2="hardAlpha" operator="out"/>
<feColorMatrix type="matrix" values="0 0 0 0 0 0 0 0 0 0 0 0 0 0 0 0 0 0 0.25 0"/>
<feBlend mode="normal" in2="BackgroundImageFix" result="effect1_dropShadow_433_117"/>
<feBlend mode="normal" in="SourceGraphic" in2="effect1_dropShadow_433_117" result="shape"/>
</filter>
<clipPath id="clip0_433_117">
<rect width="56" height="56" fill="white"/>
</clipPath>
</defs>
</svg>
