<svg width="48" height="48" viewBox="0 0 48 48" fill="none" xmlns="http://www.w3.org/2000/svg">
<rect width="48" height="48" fill="#9A4E4E"/>
<g clip-path="url(#clip0_31_1274)">
<rect width="1440" height="1024" transform="translate(-308 -436)" fill="white"/>
<rect x="-68" y="-436" width="1200" height="1024" fill="#F5F9FA"/>
<rect x="-20" y="-28" width="330" height="200" rx="8" fill="#DC3545"/>
<path d="M33.8 4.1665C31.4667 1.83317 28.4333 0.666504 25.6333 0.666504C22.8333 0.666504 19.5667 1.83317 17.4667 4.1665L3.93335 17.2332C-0.733317 21.8998 -0.733317 29.1332 3.93335 33.7998C8.60002 38.4665 15.8334 38.4665 20.5 33.7998L33.8 20.4998C38.2334 16.0665 38.2334 8.59984 33.8 4.1665ZM30.5333 17.2332L24 23.7665L15.6 15.5998L5.33335 25.8665C5.33335 23.9998 5.80002 21.8998 7.43335 20.4998L20.7334 7.19984C21.9 6.03317 23.7667 5.33317 25.4 5.33317C27.0333 5.33317 28.9 6.03317 30.3 7.19984C33.1 10.2332 33.1 14.4332 30.5333 17.2332ZM41.7333 12.5665C41.7333 14.4332 41.2667 16.0665 40.8 17.9332C43.1334 20.7332 43.1334 24.9332 40.5667 27.4998L34.0333 34.0332L30.5333 30.5332L24 37.0665C20.9667 40.0998 16.7667 41.7332 12.8 41.7332C13.2667 42.4332 13.7333 43.1332 14.4333 43.8332C19.1 48.4998 26.3333 48.4998 31 43.8332L44.3 30.5332C48.9667 25.8665 48.9667 18.6332 44.3 13.9665C43.1334 13.4998 42.4333 13.0332 41.7333 12.5665Z" fill="#FFFAFA"/>
</g>
<defs>
<clipPath id="clip0_31_1274">
<rect width="1440" height="1024" fill="white" transform="translate(-308 -436)"/>
</clipPath>
</defs>
</svg>
