<svg width="25" height="22" viewBox="0 0 25 22" fill="none" xmlns="http://www.w3.org/2000/svg">
<path d="M3.00016 21.6667C2.26683 21.6667 1.63905 21.4056 1.11683 20.8833C0.594607 20.3611 0.333496 19.7333 0.333496 19C0.333496 18.2667 0.594607 17.6389 1.11683 17.1167C1.63905 16.5945 2.26683 16.3333 3.00016 16.3333C3.7335 16.3333 4.36127 16.5945 4.8835 17.1167C5.40572 17.6389 5.66683 18.2667 5.66683 19C5.66683 19.7333 5.40572 20.3611 4.8835 20.8833C4.36127 21.4056 3.7335 21.6667 3.00016 21.6667ZM3.00016 13.6667C2.26683 13.6667 1.63905 13.4056 1.11683 12.8833C0.594607 12.3611 0.333496 11.7333 0.333496 11C0.333496 10.2667 0.594607 9.6389 1.11683 9.11668C1.63905 8.59445 2.26683 8.33334 3.00016 8.33334C3.7335 8.33334 4.36127 8.59445 4.8835 9.11668C5.40572 9.6389 5.66683 10.2667 5.66683 11C5.66683 11.7333 5.40572 12.3611 4.8835 12.8833C4.36127 13.4056 3.7335 13.6667 3.00016 13.6667ZM3.00016 5.66668C2.26683 5.66668 1.63905 5.40557 1.11683 4.88334C0.594607 4.36112 0.333496 3.73334 0.333496 3.00001C0.333496 2.26668 0.594607 1.6389 1.11683 1.11668C1.63905 0.594455 2.26683 0.333344 3.00016 0.333344C3.7335 0.333344 4.36127 0.594455 4.8835 1.11668C5.40572 1.6389 5.66683 2.26668 5.66683 3.00001C5.66683 3.73334 5.40572 4.36112 4.8835 4.88334C4.36127 5.40557 3.7335 5.66668 3.00016 5.66668ZM11.0002 5.66668C10.2668 5.66668 9.63905 5.40557 9.11683 4.88334C8.59461 4.36112 8.3335 3.73334 8.3335 3.00001C8.3335 2.26668 8.59461 1.6389 9.11683 1.11668C9.63905 0.594455 10.2668 0.333344 11.0002 0.333344C11.7335 0.333344 12.3613 0.594455 12.8835 1.11668C13.4057 1.6389 13.6668 2.26668 13.6668 3.00001C13.6668 3.73334 13.4057 4.36112 12.8835 4.88334C12.3613 5.40557 11.7335 5.66668 11.0002 5.66668ZM19.0002 5.66668C18.2668 5.66668 17.6391 5.40557 17.1168 4.88334C16.5946 4.36112 16.3335 3.73334 16.3335 3.00001C16.3335 2.26668 16.5946 1.6389 17.1168 1.11668C17.6391 0.594455 18.2668 0.333344 19.0002 0.333344C19.7335 0.333344 20.3613 0.594455 20.8835 1.11668C21.4057 1.6389 21.6668 2.26668 21.6668 3.00001C21.6668 3.73334 21.4057 4.36112 20.8835 4.88334C20.3613 5.40557 19.7335 5.66668 19.0002 5.66668ZM11.0002 13.6667C10.2668 13.6667 9.63905 13.4056 9.11683 12.8833C8.59461 12.3611 8.3335 11.7333 8.3335 11C8.3335 10.2667 8.59461 9.6389 9.11683 9.11668C9.63905 8.59445 10.2668 8.33334 11.0002 8.33334C11.7335 8.33334 12.3613 8.59445 12.8835 9.11668C13.4057 9.6389 13.6668 10.2667 13.6668 11C13.6668 11.7333 13.4057 12.3611 12.8835 12.8833C12.3613 13.4056 11.7335 13.6667 11.0002 13.6667ZM12.3335 21.6667V17.5667L19.7002 10.2333C19.9002 10.0333 20.1224 9.8889 20.3668 9.80001C20.6113 9.71112 20.8557 9.66668 21.1002 9.66668C21.3668 9.66668 21.6224 9.71668 21.8668 9.81668C22.1113 9.91668 22.3335 10.0667 22.5335 10.2667L23.7668 11.5C23.9446 11.7 24.0835 11.9222 24.1835 12.1667C24.2835 12.4111 24.3335 12.6556 24.3335 12.9C24.3335 13.1445 24.2891 13.3945 24.2002 13.65C24.1113 13.9056 23.9668 14.1333 23.7668 14.3333L16.4335 21.6667H12.3335ZM14.3335 19.6667H15.6002L19.6335 15.6L19.0335 14.9667L18.4002 14.3667L14.3335 18.4V19.6667ZM19.0335 14.9667L18.4002 14.3667L19.6335 15.6L19.0335 14.9667Z" fill="#015963"/>
</svg>
